<svg width="113" height="28" viewBox="0 0 113 28" fill="none" xmlns="http://www.w3.org/2000/svg">
<path d="M2.95002 8.0999C2.24336 8.0999 1.67336 7.9299 1.24002 7.5899C0.806691 7.24324 0.526691 6.7799 0.400024 6.1999H1.25002C1.37669 6.5799 1.58336 6.86657 1.87002 7.0599C2.16336 7.25324 2.52336 7.3499 2.95002 7.3499C3.52336 7.3499 3.95002 7.2299 4.23002 6.9899C4.51002 6.7499 4.65002 6.45324 4.65002 6.0999C4.65002 5.87324 4.59002 5.6899 4.47002 5.5499C4.35669 5.4099 4.20336 5.29657 4.01002 5.2099C3.82336 5.11657 3.60669 5.0399 3.36002 4.9799C3.12002 4.9199 2.87336 4.85657 2.62002 4.7899C2.37336 4.72324 2.12669 4.64657 1.88002 4.5599C1.64002 4.46657 1.42336 4.34657 1.23002 4.1999C1.04336 4.05324 0.890024 3.8699 0.770024 3.6499C0.656691 3.42324 0.600024 3.1399 0.600024 2.7999C0.600024 2.5399 0.650024 2.29324 0.750024 2.0599C0.856691 1.82657 1.01002 1.62657 1.21002 1.4599C1.41002 1.28657 1.65669 1.1499 1.95002 1.0499C2.24336 0.949902 2.57669 0.899902 2.95002 0.899902C3.57669 0.899902 4.10002 1.04657 4.52002 1.3399C4.94669 1.62657 5.22336 2.04657 5.35002 2.5999H4.50002C4.40002 2.3199 4.22336 2.09324 3.97002 1.9199C3.71669 1.7399 3.37669 1.6499 2.95002 1.6499C2.45002 1.6499 2.07336 1.7599 1.82002 1.9799C1.57336 2.1999 1.45002 2.47324 1.45002 2.7999C1.45002 3.0399 1.50669 3.23657 1.62002 3.3899C1.74002 3.53657 1.89336 3.6599 2.08002 3.7599C2.27336 3.85324 2.49002 3.93324 2.73002 3.9999C2.97669 4.0599 3.22336 4.12324 3.47002 4.1899C3.72336 4.25657 3.97002 4.33324 4.21002 4.4199C4.45669 4.4999 4.67336 4.61324 4.86002 4.7599C5.05336 4.8999 5.20669 5.07657 5.32002 5.2899C5.44002 5.50324 5.50002 5.77324 5.50002 6.0999C5.50002 6.3599 5.44336 6.61324 5.33002 6.8599C5.22336 7.0999 5.06002 7.31324 4.84002 7.4999C4.62669 7.6799 4.36002 7.82657 4.04002 7.9399C3.72669 8.04657 3.36336 8.0999 2.95002 8.0999Z" fill="#2E3131"/>
<path d="M6.59846 2.7999H7.34846V7.9999H6.59846V2.7999ZM6.97846 2.0499C6.8318 2.0499 6.70513 1.9999 6.59846 1.8999C6.49846 1.7999 6.44846 1.67657 6.44846 1.5299C6.44846 1.38324 6.49846 1.2599 6.59846 1.1599C6.69846 1.05324 6.82513 0.999902 6.97846 0.999902C7.12513 0.999902 7.24846 1.05324 7.34846 1.1599C7.44846 1.2599 7.49846 1.38324 7.49846 1.5299C7.49846 1.6699 7.44846 1.79324 7.34846 1.8999C7.24846 1.9999 7.12513 2.0499 6.97846 2.0499Z" fill="#2E3131"/>
<path d="M10.3969 7.9999C10.0169 7.9999 9.70357 7.8799 9.4569 7.6399C9.2169 7.39324 9.0969 7.0799 9.0969 6.6999V3.4999H8.2969V2.7999H9.0969L9.1969 1.3999H9.8469V2.7999H11.1969V3.4999H9.8469V6.6999C9.8469 6.87324 9.90357 7.01657 10.0169 7.1299C10.1302 7.24324 10.2736 7.2999 10.4469 7.2999H11.1969V7.9999H10.3969Z" fill="#2E3131"/>
<path d="M14.3539 8.0999C14.0006 8.0999 13.6773 8.04324 13.3839 7.9299C13.0906 7.8099 12.8373 7.63657 12.6239 7.4099C12.4173 7.17657 12.2539 6.89324 12.1339 6.5599C12.0139 6.22657 11.9539 5.8399 11.9539 5.3999C11.9539 4.9599 12.0106 4.57324 12.1239 4.2399C12.2439 3.90657 12.4073 3.62657 12.6139 3.3999C12.8273 3.16657 13.0773 2.99324 13.3639 2.8799C13.6506 2.7599 13.9639 2.6999 14.3039 2.6999C14.7039 2.6999 15.0506 2.77657 15.3439 2.9299C15.6373 3.07657 15.8806 3.2699 16.0739 3.5099C16.2739 3.74324 16.4206 4.00324 16.5139 4.2899C16.6073 4.5699 16.6539 4.8399 16.6539 5.0999C16.6539 5.17324 16.6506 5.2399 16.6439 5.2999C16.6373 5.3599 16.6306 5.41324 16.6239 5.4599C16.6173 5.51324 16.6106 5.5599 16.6039 5.5999H12.7039C12.7306 6.1999 12.8973 6.6499 13.2039 6.9499C13.5173 7.2499 13.9006 7.3999 14.3539 7.3999C14.9539 7.3999 15.4039 7.1499 15.7039 6.6499H16.5039C16.3306 7.1299 16.0539 7.49324 15.6739 7.7399C15.2939 7.9799 14.8539 8.0999 14.3539 8.0999ZM15.9039 4.9499C15.8506 4.4499 15.6773 4.06657 15.3839 3.7999C15.0906 3.53324 14.7306 3.3999 14.3039 3.3999C13.8773 3.3999 13.5173 3.53324 13.2239 3.7999C12.9306 4.06657 12.7573 4.4499 12.7039 4.9499H15.9039Z" fill="#2E3131"/>
<path d="M22.4969 8.0999C22.1169 8.0999 21.7802 8.0299 21.4869 7.8899C21.2002 7.7499 20.9702 7.55324 20.7969 7.2999H20.7469L20.6469 7.9999H20.0469V0.999902H20.7969V3.4499H20.8469C21.0202 3.22324 21.2436 3.04324 21.5169 2.9099C21.7902 2.7699 22.1169 2.6999 22.4969 2.6999C22.8236 2.6999 23.1236 2.7599 23.3969 2.8799C23.6702 2.99324 23.9069 3.16657 24.1069 3.3999C24.3069 3.62657 24.4636 3.90657 24.5769 4.2399C24.6902 4.57324 24.7469 4.9599 24.7469 5.3999C24.7469 5.8399 24.6902 6.22657 24.5769 6.5599C24.4636 6.89324 24.3069 7.17657 24.1069 7.4099C23.9069 7.63657 23.6702 7.8099 23.3969 7.9299C23.1236 8.04324 22.8236 8.0999 22.4969 8.0999ZM22.3969 7.3999C22.8769 7.3999 23.2636 7.2299 23.5569 6.8899C23.8502 6.5499 23.9969 6.05324 23.9969 5.3999C23.9969 4.74657 23.8502 4.2499 23.5569 3.9099C23.2636 3.5699 22.8769 3.3999 22.3969 3.3999C21.9169 3.3999 21.5302 3.5699 21.2369 3.9099C20.9436 4.2499 20.7969 4.74657 20.7969 5.3999C20.7969 6.05324 20.9436 6.5499 21.2369 6.8899C21.5302 7.2299 21.9169 7.3999 22.3969 7.3999Z" fill="#2E3131"/>
<path d="M27.2977 7.9999L25.1477 2.7999H25.9477L27.6477 6.9499H27.6977L29.3477 2.7999H30.1477L27.2977 9.9999H26.4977L27.2977 7.9999Z" fill="#2E3131"/>
<path d="M3.4685 23.8181V25.4609C3.4685 25.9375 3.51103 26.269 3.59822 26.4613C3.68541 26.6515 3.83215 26.7477 4.04268 26.7477C4.27661 26.7477 4.5318 26.7006 4.80401 26.6045C5.26123 26.6393 5.4909 26.8357 5.4909 27.1937C5.4909 27.6458 5.18254 27.8729 4.5637 27.8729C4.46375 27.8729 4.1958 27.8422 3.75559 27.7829C3.31538 27.7235 2.97938 27.6929 2.74545 27.6929C2.54768 27.6929 2.22656 27.7215 1.77997 27.7829C1.33551 27.8422 1.05054 27.8729 0.927201 27.8729C0.308358 27.8708 0 27.6438 0 27.1916C0 26.8357 0.216914 26.6393 0.648615 26.6024C0.859149 26.674 1.11222 26.7088 1.40994 26.7088C1.68215 26.7088 1.85228 26.5963 1.92033 26.3692C1.98838 26.1421 2.0224 25.8046 2.0224 25.3524V17.9281C2.0224 17.4637 1.98625 17.1221 1.91182 16.9011C1.83739 16.6802 1.65875 16.5717 1.37379 16.5717C1.25045 16.5717 1.12923 16.5861 1.01227 16.6167C0.895302 16.6474 0.761326 16.674 0.612463 16.6965C0.204154 16.674 0 16.4531 0 16.0378C0.0127596 15.823 0.108457 15.6654 0.287092 15.5652C0.465727 15.4649 0.623096 15.4138 0.761325 15.4138C0.859149 15.4138 1.03353 15.4486 1.28022 15.5202C1.5269 15.5918 1.70129 15.6266 1.79911 15.6266C1.94797 15.6266 2.14575 15.5918 2.39243 15.5202C2.63912 15.4486 2.81988 15.4138 2.93047 15.4138C3.23882 15.4138 3.39407 15.6818 3.39407 16.2178V16.5738C4.00015 15.645 5.00178 15.1826 6.39896 15.1826C7.54946 15.2072 8.5362 15.6163 9.3592 16.4142C10.1822 17.2121 10.5735 18.3905 10.5373 19.9474C10.5012 21.6127 10.0482 22.8606 9.18269 23.6871C8.31716 24.5136 7.29639 24.9269 6.12038 24.9269C5.57597 24.9269 5.06558 24.8307 4.58922 24.6405C4.11499 24.4502 3.7407 24.1761 3.4685 23.8181ZM3.4685 19.9453V20.9621C3.4685 21.6884 3.64713 22.3307 4.00653 22.8893C4.36593 23.4478 4.9954 23.7342 5.89921 23.7465C6.97527 23.7812 7.73872 23.4723 8.18957 22.8176C8.64041 22.163 8.89135 21.3651 8.94026 20.4261C9.00193 19.2354 8.81266 18.2657 8.37458 17.5169C7.93437 16.7681 7.23897 16.3917 6.28838 16.3917C5.3229 16.3917 4.61261 16.6658 4.15539 17.2121C3.69817 17.7624 3.4685 18.6728 3.4685 19.9453Z" fill="#2E3131"/>
<path d="M19.0735 17.9656C19.1479 17.8224 19.184 17.669 19.184 17.5012C19.184 17.1677 19.0267 16.8834 18.7098 16.644C18.3951 16.4067 17.9825 16.286 17.4764 16.286C16.8086 16.286 16.2621 16.5458 15.8346 17.0634C15.4072 17.581 15.1945 18.4055 15.1945 19.5348V21.8363C15.1945 22.4664 15.2349 22.9063 15.3157 23.1579C15.3966 23.4075 15.5603 23.5446 15.807 23.5691C16.0303 23.4975 16.3089 23.4628 16.6427 23.4628C17.0383 23.4628 17.2552 23.6653 17.2914 24.0704C17.3169 24.2259 17.2425 24.367 17.0681 24.4979C16.8937 24.6289 16.7023 24.6943 16.4939 24.6943C16.3578 24.7066 16.0834 24.68 15.6688 24.6146C15.2541 24.5491 14.8798 24.5164 14.5459 24.5164C14.3481 24.5164 14.027 24.545 13.5804 24.6064C13.136 24.6657 12.8382 24.6964 12.6894 24.6964C12.0578 24.6964 11.743 24.4652 11.743 24.0008C11.743 23.8228 11.8196 23.6878 11.9748 23.5998C12.1301 23.5098 12.2811 23.4668 12.4299 23.4668C12.7149 23.4668 12.9552 23.5016 13.153 23.5732C13.4379 23.561 13.6145 23.4873 13.6825 23.3502C13.7506 23.2132 13.7846 22.9656 13.7846 22.6096V17.7508C13.7846 16.9652 13.574 16.5724 13.153 16.5724C13.0658 16.5724 12.7447 16.6072 12.1875 16.6788C11.743 16.6317 11.5134 16.4415 11.5006 16.108C11.4878 15.9177 11.5623 15.7541 11.7239 15.617C11.8855 15.4799 12.0642 15.4124 12.2619 15.4124C12.3725 15.4124 12.5597 15.4472 12.8191 15.5188C13.0785 15.5904 13.2763 15.6252 13.4124 15.6252C13.4613 15.6252 13.6166 15.5965 13.876 15.5352C14.1355 15.4758 14.3332 15.4452 14.4694 15.4452C14.8394 15.4452 15.0074 15.797 14.9712 16.4988H15.0074C15.2668 16.0589 15.6347 15.7295 16.1111 15.5086C16.5875 15.2876 17.0915 15.1792 17.6231 15.1792C18.1292 15.1792 18.6184 15.2856 19.0883 15.5004C19.5583 15.7152 19.9326 16.0119 20.2112 16.3924C20.4898 16.7729 20.628 17.2128 20.628 17.714C20.628 18.1661 20.5174 18.5589 20.2941 18.8924C20.0708 19.2258 19.7923 19.4284 19.4584 19.5C19.3967 19.5 19.2904 19.5245 19.1436 19.5716C18.5992 19.547 18.2334 19.2688 18.0484 18.7328C18.0484 18.5303 18.1186 18.3461 18.2611 18.1804C18.4036 18.0147 18.5865 17.9308 18.8076 17.9308C18.8821 17.9308 18.9352 17.9329 18.965 17.939C19.0012 17.9452 19.0352 17.9533 19.0735 17.9656Z" fill="#2E3131"/>
<path d="M21.5956 19.4646C21.7062 18.0735 22.1868 17.0056 23.0332 16.2609C23.8796 15.5182 24.8727 15.1582 26.0105 15.1807C26.8505 15.1807 27.6097 15.3423 28.2838 15.6635C28.9579 15.9847 29.4981 16.5084 29.9064 17.2347C30.3147 17.961 30.538 18.8652 30.5742 19.9475C30.6103 21.4818 30.185 22.7032 29.2939 23.6054C28.4029 24.5097 27.3332 24.9618 26.0849 24.9618H26.0487C25.1449 24.9618 24.3411 24.747 23.6372 24.3194C22.9333 23.8918 22.3931 23.2597 22.0231 22.427C21.6509 21.5944 21.5084 20.6062 21.5956 19.4646ZM23.1161 20.017C23.1289 21.2547 23.3947 22.1856 23.9136 22.8096C24.4325 23.4336 25.1067 23.7466 25.936 23.7466C26.7888 23.7466 27.5225 23.4438 28.1349 22.8362C28.7474 22.2286 29.0536 21.3141 29.0536 20.0866C29.0536 17.695 28.1137 16.4634 26.2338 16.3918C25.2938 16.357 24.5367 16.6516 23.9604 17.2756C23.3862 17.8996 23.0906 18.7895 23.08 19.9434C23.1055 19.9679 23.1161 19.9822 23.1161 19.9884C23.1161 19.9966 23.1161 20.0047 23.1161 20.017Z" fill="#2E3131"/>
<path d="M35.0103 23.8172V25.46C35.0103 25.9367 35.0528 26.2681 35.14 26.4604C35.2272 26.6506 35.374 26.7468 35.5845 26.7468C35.8184 26.7468 36.0736 26.6997 36.3458 26.6036C36.803 26.6384 37.0327 26.8348 37.0327 27.1928C37.0327 27.6449 36.7244 27.872 36.1055 27.872C36.0056 27.872 35.7376 27.8413 35.2974 27.782C34.8572 27.7227 34.5212 27.692 34.2873 27.692C34.0895 27.692 33.7684 27.7206 33.3218 27.782C32.8773 27.8413 32.5924 27.872 32.469 27.872C31.8502 27.872 31.5418 27.6449 31.5418 27.1928C31.5418 26.8368 31.7587 26.6404 32.1904 26.6036C32.401 26.6752 32.654 26.71 32.9517 26.71C33.224 26.71 33.3941 26.5975 33.4621 26.3704C33.5302 26.1433 33.5642 25.8057 33.5642 25.3536V17.9272C33.5642 17.4628 33.5281 17.1212 33.4536 16.9002C33.3792 16.6793 33.2006 16.5709 32.9156 16.5709C32.7923 16.5709 32.671 16.5852 32.5541 16.6159C32.4371 16.6465 32.3031 16.6731 32.1543 16.6956C31.746 16.6711 31.5418 16.4522 31.5418 16.0348C31.5546 15.82 31.6503 15.6625 31.8289 15.5623C32.0075 15.462 32.1649 15.4109 32.3031 15.4109C32.401 15.4109 32.5753 15.4456 32.822 15.5172C33.0687 15.5889 33.2431 15.6236 33.3409 15.6236C33.4898 15.6236 33.6876 15.5889 33.9342 15.5172C34.1809 15.4456 34.3617 15.4109 34.4723 15.4109C34.7806 15.4109 34.9359 15.6789 34.9359 16.2149V16.5709C35.542 15.642 36.5436 15.1797 37.9408 15.1797C39.0913 15.2042 40.078 15.6134 40.901 16.4113C41.724 17.2091 42.1153 18.3875 42.0791 19.9444C42.043 21.6097 41.59 22.8577 40.7245 23.6842C39.859 24.5107 38.8382 24.924 37.6622 24.924C37.1178 24.924 36.6074 24.8278 36.131 24.6376C35.6547 24.4493 35.2804 24.1752 35.0103 23.8172ZM35.0103 19.9444V20.9612C35.0103 21.6875 35.1889 22.3299 35.5483 22.8884C35.9077 23.4469 36.5372 23.7333 37.441 23.7456C38.5171 23.7804 39.2805 23.4714 39.7314 22.8168C40.1822 22.1621 40.4332 21.3642 40.4821 20.4252C40.5437 19.2345 40.3545 18.2648 39.9164 17.516C39.4762 16.7673 38.7808 16.3908 37.8302 16.3908C36.8647 16.3908 36.1544 16.665 35.6972 17.2112C35.2379 17.7615 35.0103 18.6719 35.0103 19.9444Z" fill="#2E3131"/>
<path d="M45.6582 17.2327C45.6582 17.2081 45.7327 17.2634 45.8815 17.3943C46.0304 17.5252 46.1048 17.7278 46.1048 18.0019C46.1048 18.5134 45.7646 18.7936 45.084 18.8407C45.0351 18.8162 44.9607 18.8059 44.8608 18.8059C44.2802 18.6995 43.9633 18.3129 43.9144 17.6459C43.9633 17.1222 44.1951 16.6578 44.6098 16.2527C45.0245 15.8477 45.52 15.5531 46.0942 15.3689C46.6684 15.1848 47.2468 15.1214 47.8295 15.1807C49.0672 15.2871 49.9327 15.6083 50.4261 16.1443C50.9216 16.6803 51.1555 17.472 51.1321 18.5175L51.0215 22.247C51.0215 22.6869 51.0556 23.0387 51.1236 23.3006C51.1917 23.5625 51.3873 23.7343 51.7084 23.8182C52.0062 23.7589 52.1933 23.6259 52.2741 23.4172C52.3549 23.2085 52.3953 22.9139 52.3953 22.5334V21.9094C52.3953 21.3509 52.5931 21.0707 52.9886 21.0707C53.4204 21.0707 53.6373 21.2671 53.6373 21.6599V22.605V23.3374C53.5884 23.8612 53.3799 24.2499 53.0163 24.5056C52.6505 24.7613 52.2018 24.8902 51.6702 24.8902C51.2002 24.8902 50.7727 24.7675 50.3899 24.524C50.0071 24.2806 49.7966 23.9737 49.7583 23.6054C49.4734 24.0453 49.0587 24.3829 48.5143 24.614C47.9699 24.8452 47.3829 24.9618 46.7513 24.9618C45.9836 24.9618 45.2754 24.792 44.6268 24.4524C43.9782 24.1128 43.572 23.6709 43.4125 23.1226C43.3636 22.9201 43.3126 22.6398 43.2637 22.2838C43.2998 21.0932 43.8953 20.2666 45.0458 19.8022C45.3669 19.659 45.8305 19.5527 46.4366 19.481C47.0427 19.4094 47.5786 19.3481 48.0422 19.2928C48.5058 19.2396 48.8375 19.1537 49.0353 19.033C49.4181 18.808 49.6095 18.4622 49.6095 17.9978C49.6095 17.5109 49.4074 17.1202 49.0055 16.8297C48.6036 16.5391 48.1421 16.3918 47.6232 16.3918C47.1788 16.3918 46.7449 16.4757 46.3239 16.6414C45.907 16.8112 45.6838 17.0076 45.6582 17.2327ZM49.6116 19.9107C49.2394 20.2564 48.5568 20.4937 47.5615 20.6247C46.5663 20.7556 45.8794 20.8865 45.503 21.0175C45.1266 21.1484 44.899 21.5351 44.8267 22.1774C44.7778 22.6889 44.9437 23.0735 45.3286 23.3293C45.7114 23.585 46.2005 23.7241 46.7938 23.7486C47.3999 23.7139 47.9443 23.587 48.4271 23.3743C48.8715 23.1492 49.1693 22.8321 49.3181 22.4291C49.467 22.024 49.5478 21.531 49.5584 20.9479C49.5669 20.3628 49.5861 20.0171 49.6116 19.9107Z" fill="#2E3131"/>
<path d="M55.8807 23.088C55.398 22.9816 55.0237 22.7668 54.7579 22.4456C54.4921 22.1244 54.3475 21.7562 54.3219 21.3388C54.3709 20.4591 54.8791 19.8822 55.8425 19.6081C55.5341 19.1314 55.3661 18.6199 55.3406 18.0737C55.3406 17.2758 55.6808 16.5946 56.3614 16.0299C57.0419 15.4653 57.8946 15.183 58.9218 15.183C59.2195 15.183 59.5704 15.2136 59.9787 15.273C60.0149 14.6551 60.2382 14.205 60.6465 13.9248C61.0548 13.6445 61.5439 13.5054 62.1117 13.5054C62.6434 13.5054 63.1261 13.6383 63.5578 13.9064C63.9916 14.1744 64.2064 14.5631 64.2064 15.0745C64.2064 15.3957 64.1235 15.6269 63.9555 15.7701C63.7875 15.9133 63.5323 16.0381 63.1856 16.1445C62.9879 16.1445 62.8199 16.077 62.6838 15.9399C62.5477 15.8028 62.4732 15.6514 62.4605 15.4857C62.4966 15.1891 62.6455 14.9681 62.9049 14.8249C62.7433 14.5876 62.4775 14.469 62.1075 14.469C61.8225 14.469 61.5822 14.5733 61.3844 14.782C61.1866 14.9906 61.0867 15.2975 61.0867 15.7005C61.5567 16.0095 61.9161 16.3879 62.1627 16.8339C62.4094 17.2799 62.5328 17.7361 62.5328 18.1985C62.5328 19.0086 62.1946 19.7124 61.5226 20.3139C60.8485 20.9154 60.0042 21.2222 58.9899 21.2325C58.4582 21.1854 58.001 21.1199 57.6161 21.0361C57.5055 21.0013 57.363 20.9501 57.1886 20.8847C57.0164 20.8192 56.8398 20.7619 56.6591 20.7149C56.4805 20.6678 56.3465 20.6433 56.2593 20.6433C56.0615 20.6433 55.9318 20.7128 55.8701 20.8478C55.8084 20.9849 55.7468 21.1956 55.6851 21.4821C55.6851 21.7562 55.8574 21.9669 56.204 22.1163C56.5506 22.2656 57.1376 22.3454 57.9669 22.3577C58.1392 22.3331 58.4178 22.3229 58.8027 22.3229C60.3615 22.2758 61.5418 22.5275 62.3456 23.0819C63.1495 23.6343 63.5514 24.3339 63.5514 25.1789C63.5514 26.1793 63.0623 26.8974 62.0862 27.3393C61.108 27.7791 60.0149 28.0001 58.8027 28.0001C57.6033 28.0001 56.54 27.7853 55.6107 27.3577C54.6835 26.9301 54.1752 26.2161 54.0901 25.2157C54.1391 24.156 54.7324 23.4726 55.8722 23.1637V23.088H55.8807ZM58.9984 23.5688C57.9223 23.5934 57.0972 23.7386 56.5209 24.0066C55.9467 24.2746 55.6575 24.651 55.6575 25.14C55.6575 25.6167 55.9297 26.0197 56.4741 26.3532C57.0185 26.6866 57.7479 26.8524 58.6645 26.8524C59.4683 26.8524 60.2424 26.7337 60.9846 26.4943C61.7268 26.257 62.0798 25.8151 62.0415 25.1727C62.0415 24.6735 61.7821 24.2767 61.2632 23.9861C60.7422 23.6977 59.9872 23.5586 58.9984 23.5688ZM56.8654 18.1085C56.8292 18.6915 57.01 19.1559 57.4119 19.4996C57.8138 19.8454 58.2923 20.0172 58.8495 20.0172C59.2195 20.0418 59.5789 19.9784 59.9256 19.829C60.2722 19.6797 60.5529 19.4669 60.7698 19.1866C60.9867 18.9064 61.0952 18.5893 61.0952 18.2312C61.108 17.6236 60.8974 17.1613 60.4636 16.8401C60.0298 16.5189 59.5045 16.3573 58.8856 16.3573C58.3412 16.3327 57.8776 16.4861 57.4948 16.8114C57.1121 17.1408 56.9015 17.5725 56.8654 18.1085Z" fill="#2E3131"/>
<path d="M67.0136 17.2327C67.0136 17.2081 67.088 17.2634 67.2369 17.3943C67.3857 17.5252 67.4602 17.7278 67.4602 18.0019C67.4602 18.5134 67.1199 18.7936 66.4394 18.8407C66.3905 18.8162 66.3161 18.8059 66.2161 18.8059C65.6355 18.6995 65.3187 18.3129 65.2698 17.6459C65.3187 17.1222 65.5505 16.6578 65.9652 16.2527C66.3799 15.8477 66.8754 15.5531 67.4495 15.3689C68.0237 15.1848 68.6022 15.1214 69.1849 15.1807C70.4225 15.2871 71.2881 15.6083 71.7814 16.1443C72.2769 16.6803 72.5109 17.472 72.4875 18.5175L72.3769 22.247C72.3769 22.6869 72.4109 23.0387 72.479 23.3006C72.547 23.5625 72.7427 23.7343 73.0638 23.8182C73.3615 23.7589 73.5487 23.6259 73.6295 23.4172C73.7103 23.2085 73.7507 22.9139 73.7507 22.5334V21.9094C73.7507 21.3509 73.9485 21.0707 74.344 21.0707C74.7757 21.0707 74.9926 21.2671 74.9926 21.6599V22.605V23.3374C74.9437 23.8612 74.7353 24.2499 74.3716 24.5056C74.0059 24.7613 73.5572 24.8902 73.0276 24.8902C72.5577 24.8902 72.1302 24.7675 71.7474 24.524C71.3646 24.2806 71.1541 23.9737 71.1158 23.6054C70.8308 24.0453 70.4162 24.3829 69.8717 24.614C69.3273 24.8452 68.7404 24.9618 68.1088 24.9618C67.3411 24.9618 66.6329 24.792 65.9843 24.4524C65.3357 24.1128 64.9295 23.6709 64.77 23.1226C64.7211 22.9201 64.6701 22.6398 64.6212 22.2838C64.6573 21.0932 65.2528 20.2666 66.4033 19.8022C66.7244 19.659 67.188 19.5527 67.7941 19.481C68.4001 19.4094 68.936 19.3481 69.3996 19.2928C69.8632 19.2396 70.195 19.1537 70.3928 19.033C70.7756 18.808 70.9669 18.4622 70.9669 17.9978C70.9669 17.5109 70.7649 17.1202 70.363 16.8297C69.9611 16.5391 69.4996 16.3918 68.9807 16.3918C68.5362 16.3918 68.1024 16.4757 67.6813 16.6414C67.2603 16.8112 67.0391 17.0076 67.0136 17.2327ZM70.9648 19.9107C70.5927 20.2564 69.91 20.4937 68.9148 20.6247C67.9195 20.7556 67.2326 20.8865 66.8562 21.0175C66.4798 21.1484 66.2523 21.5351 66.18 22.1774C66.131 22.6889 66.2969 23.0735 66.6818 23.3293C67.0646 23.585 67.5537 23.7241 68.1471 23.7486C68.7532 23.7139 69.2976 23.587 69.7803 23.3743C70.2248 23.1492 70.5225 22.8321 70.6714 22.4291C70.8202 22.024 70.901 21.531 70.9117 20.9479C70.9223 20.3628 70.9393 20.0171 70.9648 19.9107Z" fill="#2E3131"/>
<path d="M78.7567 16.4999H78.7929C79.1012 16.0846 79.5542 15.7511 80.1475 15.4995C80.7409 15.2499 81.3406 15.1435 81.9466 15.1783C82.7994 15.2131 83.6011 15.4483 84.3497 15.8841C85.0983 16.3178 85.4726 17.173 85.4726 18.4455V22.4246C85.4726 22.8174 85.5087 23.1059 85.5831 23.29C85.6576 23.4741 85.8 23.5785 86.0106 23.603C86.27 23.5314 86.5486 23.4966 86.8463 23.4966C87.2802 23.4966 87.495 23.6869 87.495 24.0674C87.495 24.4848 87.2164 24.6914 86.6592 24.6914C86.5848 24.6914 86.3168 24.6607 85.8511 24.6014C85.3875 24.5421 85.0323 24.5114 84.7835 24.5114C84.5368 24.5114 84.1838 24.5359 83.7266 24.583C83.2694 24.63 82.9419 24.6546 82.7441 24.6546C82.2614 24.6546 82.0211 24.4705 82.0211 24.1022C82.0211 23.6971 82.2252 23.4946 82.6335 23.4946C82.8441 23.4946 83.061 23.5191 83.2821 23.5662C83.38 23.5662 83.4438 23.5785 83.4672 23.601C83.8372 23.5764 84.0243 23.1141 84.0243 22.2078V18.5539C84.0243 18.1141 83.9286 17.7274 83.7372 17.3939C83.5458 17.0605 83.2736 16.8047 82.9206 16.6267C82.5676 16.4488 82.138 16.371 81.6319 16.3956C80.9514 16.3956 80.3389 16.6042 79.7945 17.0195C79.2501 17.4369 78.9779 18.2511 78.9779 19.4643V22.4267C78.9779 22.8542 79.0353 23.1652 79.1544 23.3555C79.2714 23.5457 79.4798 23.6173 79.7754 23.5703C79.8009 23.5703 79.8732 23.558 79.9987 23.5355C80.122 23.511 80.2262 23.5007 80.3134 23.5007C80.7451 23.5007 80.962 23.691 80.962 24.0715C80.962 24.4889 80.6962 24.6955 80.1645 24.6955C80.1156 24.6955 79.8647 24.6648 79.4138 24.6055C78.963 24.5461 78.6015 24.5155 78.3293 24.5155C78.0443 24.5155 77.6573 24.5441 77.1703 24.6055C76.6812 24.6648 76.3941 24.6955 76.3069 24.6955C76.0602 24.6955 75.8667 24.6443 75.7327 24.5441C75.5966 24.4439 75.5285 24.2618 75.5285 23.9999C75.5285 23.6439 75.7391 23.4639 76.1601 23.4639C76.3452 23.4639 76.611 23.511 76.9576 23.6071C77.2043 23.5948 77.3617 23.5007 77.4318 23.3207C77.4999 23.1427 77.5339 22.8215 77.5339 22.3571V17.6067C77.5339 17.2487 77.4935 16.9889 77.4127 16.8211C77.3319 16.6554 77.1809 16.5715 76.9576 16.5715C76.8577 16.5715 76.6046 16.6063 76.1963 16.6779C75.7391 16.6308 75.5094 16.4406 75.5094 16.1071C75.5094 16.0007 75.5689 15.8657 75.6859 15.7061C75.8029 15.5445 75.9602 15.4463 76.1601 15.4115C76.2835 15.3992 76.4472 15.432 76.6514 15.5097C76.8555 15.5875 77.0746 15.6263 77.3106 15.6263C77.3723 15.6263 77.5233 15.5977 77.7657 15.5363C78.006 15.477 78.1953 15.4463 78.3314 15.4463C78.5037 15.4463 78.6185 15.4872 78.6738 15.5711C78.7291 15.655 78.7567 15.8207 78.7567 16.0703V16.4999Z" fill="#2E3131"/>
<path d="M95.2317 16.4995H95.2679V14.5007C95.2679 13.8829 95.1807 13.5003 95.0084 13.3592C94.9595 13.3121 94.8659 13.2876 94.7298 13.2876C94.3959 13.2876 94.1429 13.3223 93.9685 13.394C93.4985 13.3592 93.2561 13.1505 93.2454 12.77C93.2454 12.592 93.3071 12.4426 93.4305 12.324C93.5538 12.2053 93.709 12.146 93.8941 12.146C94.1407 12.146 94.3896 12.1726 94.6362 12.2258C94.8829 12.279 95.0679 12.3056 95.1934 12.3056C95.2423 12.3056 95.2806 12.3178 95.304 12.3403C95.4529 12.3158 95.5741 12.2892 95.6655 12.2606C95.7591 12.2319 95.8697 12.2033 95.9994 12.1808C96.1291 12.1562 96.2376 12.146 96.3248 12.146C96.5842 12.146 96.7139 12.3894 96.7139 12.8784V22.3915C96.7139 23.1894 96.8926 23.6047 97.252 23.6415C97.2775 23.6415 97.3945 23.6129 97.605 23.5515C97.8155 23.4922 97.9516 23.4615 98.0133 23.4615C98.4705 23.4615 98.7002 23.664 98.7002 24.0691C98.7002 24.4864 98.5088 24.6931 98.126 24.6931C98.0771 24.6931 97.9091 24.6624 97.6241 24.603C97.3392 24.5437 97.1116 24.513 96.9372 24.513C96.8011 24.513 96.6246 24.5417 96.4077 24.603C96.1908 24.6624 96.0526 24.6931 95.9909 24.6931C95.7548 24.6931 95.6017 24.6399 95.5273 24.5314C95.4529 24.4251 95.3912 24.2348 95.3423 23.9607C95.3678 23.8891 95.3784 23.7949 95.3784 23.6742H95.3423C95.0828 24.067 94.6894 24.3862 94.1641 24.6296C93.6389 24.8731 93.0413 24.9836 92.3735 24.959C91.1359 24.8997 90.1449 24.468 89.3963 23.664C88.6477 22.86 88.2373 21.7512 88.1629 20.3354C88.1139 19.1939 88.2777 18.2385 88.6541 17.4713C89.0305 16.7041 89.5451 16.1354 90.1938 15.7671C90.8424 15.3989 91.5442 15.2025 92.2991 15.1779C92.9307 15.1779 93.5262 15.2904 94.0897 15.5175C94.6554 15.7446 95.0339 16.0719 95.2317 16.4995ZM89.6855 20.0163C89.7217 21.1947 89.9917 22.1133 90.4915 22.7741C90.9934 23.4349 91.6632 23.7581 92.5054 23.7458C93.3709 23.7213 94.0493 23.4574 94.5363 22.9521C95.0254 22.4467 95.27 21.4688 95.27 20.0163C95.2827 18.7663 95.0382 17.8559 94.5363 17.2851C94.0344 16.7143 93.339 16.4177 92.448 16.3931C91.6569 16.3931 90.9934 16.7143 90.4638 17.3567C89.9322 17.9991 89.66 18.8256 89.6472 19.8383C89.6727 19.8854 89.6855 19.9447 89.6855 20.0163Z" fill="#2E3131"/>
<path d="M101.522 17.2327C101.522 17.2081 101.597 17.2634 101.746 17.3943C101.894 17.5252 101.969 17.7278 101.969 18.0019C101.969 18.5134 101.629 18.7936 100.948 18.8407C100.899 18.8162 100.825 18.8059 100.725 18.8059C100.144 18.6995 99.8273 18.3129 99.7784 17.6459C99.8273 17.1222 100.059 16.6578 100.474 16.2527C100.889 15.8477 101.382 15.5531 101.958 15.3689C102.532 15.1848 103.111 15.1214 103.694 15.1807C104.931 15.2871 105.797 15.6083 106.29 16.1443C106.786 16.6803 107.02 17.472 106.994 18.5175L106.883 22.2491C106.883 22.6889 106.917 23.0408 106.986 23.3027C107.054 23.5645 107.247 23.7364 107.57 23.8202C107.868 23.7609 108.055 23.6279 108.136 23.4193C108.217 23.2106 108.257 22.916 108.257 22.5355V21.9115C108.257 21.353 108.455 21.0727 108.851 21.0727C109.282 21.0727 109.499 21.2691 109.499 21.6619V22.6071V23.3395C109.45 23.8632 109.242 24.2519 108.878 24.5076C108.512 24.7634 108.066 24.8923 107.532 24.8923C107.062 24.8923 106.635 24.7695 106.252 24.5261C105.869 24.2826 105.659 23.9757 105.62 23.6075C105.335 24.0473 104.921 24.3849 104.378 24.6161C103.834 24.8473 103.247 24.9639 102.615 24.9639C101.848 24.9639 101.139 24.7941 100.491 24.4545C99.8422 24.1148 99.436 23.6729 99.2765 23.1247C99.2276 22.9221 99.1766 22.6419 99.1277 22.2859C99.1638 21.0952 99.7593 20.2687 100.908 19.8043C101.229 19.6611 101.692 19.5547 102.298 19.4831C102.905 19.4115 103.44 19.3501 103.904 19.2949C104.368 19.2417 104.699 19.1558 104.897 19.0351C105.28 18.81 105.471 18.4643 105.471 17.9999C105.471 17.513 105.269 17.1222 104.867 16.8317C104.465 16.5412 104.004 16.3939 103.485 16.3939C103.041 16.3939 102.607 16.4778 102.186 16.6435C101.769 16.8112 101.548 17.0076 101.522 17.2327ZM105.473 19.9107C105.103 20.2564 104.419 20.4937 103.423 20.6247C102.428 20.7556 101.741 20.8865 101.365 21.0175C100.988 21.1484 100.761 21.5351 100.689 22.1774C100.64 22.6889 100.806 23.0735 101.19 23.3292C101.573 23.585 102.062 23.7241 102.656 23.7486C103.262 23.7139 103.806 23.587 104.289 23.3743C104.733 23.1492 105.031 22.8321 105.18 22.4291C105.329 22.024 105.41 21.531 105.42 20.9479C105.431 20.3628 105.45 20.0171 105.473 19.9107Z" fill="#2E3131"/>
<path d="M110.843 16.7334C111.449 15.9723 111.802 15.2992 111.9 14.7162C111.936 14.5259 111.906 14.4154 111.806 14.3868C111.706 14.3582 111.526 14.3295 111.26 14.307C110.994 14.2825 110.784 14.2231 110.628 14.129C110.473 14.0349 110.354 13.8487 110.267 13.5766C110.254 13.505 110.245 13.4396 110.239 13.3803C110.233 13.3209 110.218 13.2555 110.192 13.1839C110.205 12.7665 110.375 12.4617 110.703 12.2653C111.03 12.0689 111.343 11.9829 111.641 12.0055C112.668 12.1364 113.112 12.9036 112.976 14.307C112.889 15.1397 112.506 15.9846 111.826 16.8418C111.541 17.2223 111.3 17.4126 111.103 17.4126C110.866 17.4126 110.732 17.2939 110.694 17.0546C110.756 16.8766 110.805 16.7681 110.843 16.7334Z" fill="#2E3131"/>
</svg>
