<svg width="128" height="16" viewBox="0 0 128 16" fill="none" xmlns="http://www.w3.org/2000/svg">
<path d="M25.4923 4.40212C25.1636 4.0724 24.6349 3.90755 23.9107 3.90755C22.1292 3.90755 21.1518 5.23531 20.9741 7.89084C21.0674 9.96714 21.6938 11.2682 22.8533 11.7895C23.2487 11.9632 23.6797 12.0791 24.1462 12.137C24.7415 12.0835 25.1991 11.8964 25.5146 11.5711C25.83 11.2459 26.1454 10.7558 26.452 10.0919C26.7585 9.2587 27.3139 8.84433 28.118 8.84433C28.7977 8.84433 29.3709 9.03592 29.8373 9.41465C30.3038 9.79337 30.5349 10.328 30.5349 11.0142C30.5349 11.7806 30.3394 12.4712 29.9529 13.086C29.5619 13.7009 29.0465 14.2222 28.4068 14.6544C27.7626 15.0821 27.0695 15.4119 26.3231 15.6391C25.5767 15.8663 24.8481 15.9866 24.1462 16C22.2447 16 20.4854 15.4564 18.8682 14.3648C17.2555 13.2732 16.3847 11.0989 16.2559 7.83291C16.2559 6.69229 16.4647 5.64077 16.8867 4.67836C17.3043 3.71596 17.8819 2.90058 18.6105 2.22334C19.3436 1.54609 20.1833 1.02924 21.1296 0.663881C22.0759 0.298524 23.0844 0.1203 24.1417 0.1203C25.1014 0.1203 26.0477 0.280701 26.9807 0.605959C27.9136 0.931216 28.6822 1.43915 29.2953 2.12977C29.9084 2.82038 30.215 3.6714 30.215 4.68727C30.1883 5.36898 29.9306 5.94375 29.4419 6.41604C28.9532 6.88833 28.2913 7.13784 27.4516 7.16458C26.7807 7.16458 26.2343 6.98635 25.8167 6.62545C25.399 6.26455 25.1725 5.84127 25.1458 5.3467C25.208 4.94124 25.3235 4.6249 25.4923 4.40212Z" fill="#2E3131"/>
<path d="M31.7695 7.77499C31.7873 6.05068 32.1338 4.61598 32.8047 3.4709C33.4755 2.32581 34.3996 1.48371 35.5725 0.935672C36.7454 0.392091 38.0871 0.1203 39.5976 0.1203C40.5928 0.147034 41.5258 0.316346 42.401 0.623781C43.2762 0.931216 44.0493 1.38123 44.7112 1.97828C45.3732 2.57533 45.9019 3.34169 46.2973 4.28627C46.6927 5.23085 46.8971 6.33584 46.9104 7.59677C46.9104 9.00473 46.7283 10.2389 46.364 11.2994C45.9996 12.3598 45.4843 13.2375 44.8179 13.9326C44.1515 14.6277 43.3607 15.1445 42.4543 15.4876C41.5436 15.8262 40.5351 16 39.4244 16H39.3178C36.9986 15.951 35.1593 15.2737 33.8043 13.9593C32.4493 12.6494 31.7695 10.5865 31.7695 7.77499ZM36.4922 7.82846C36.4922 9.24533 36.741 10.3503 37.2386 11.1434C37.7361 11.9365 38.4292 12.3331 39.3133 12.3331C41.1748 12.3331 42.13 10.8894 42.1878 8.00223C42.1878 6.57644 41.9479 5.51601 41.4636 4.8254C40.9793 4.13033 40.2996 3.78725 39.4244 3.78725C38.5936 3.78725 37.9138 4.1125 37.3807 4.75856C36.8476 5.40462 36.5544 6.42941 36.4922 7.82846Z" fill="#2E3131"/>
<path d="M59.781 13.5138H59.7232C59.159 14.3292 58.3904 14.944 57.413 15.3673C56.4356 15.7906 55.4182 16 54.3697 16C52.9969 15.9733 51.904 15.5544 51.0954 14.7524C50.2868 13.9504 49.8781 12.8276 49.8781 11.384V5.64077C49.8781 4.54024 49.6959 3.9922 49.3316 3.9922C49.2161 3.9922 49.0295 4.02784 48.7807 4.10359C48.5319 4.17933 48.3898 4.21943 48.3542 4.22389C47.5279 4.1526 47.1191 3.55555 47.1191 2.43275C47.1458 1.84906 47.3413 1.3946 47.7011 1.06043C48.061 0.726258 48.5319 0.561401 49.105 0.561401C49.4027 0.561401 49.8248 0.610413 50.3668 0.70398C50.9088 0.802003 51.3131 0.846559 51.5797 0.846559C51.8507 0.846559 52.2239 0.797547 52.6992 0.70398C53.1746 0.610413 53.53 0.561401 53.7655 0.561401C54.1698 0.561401 54.3697 0.851014 54.3697 1.42578V9.58841C54.3697 10.3771 54.543 11.0008 54.8851 11.4508C55.2272 11.9009 55.7025 12.1504 56.3023 12.186C56.6622 12.1058 56.8843 12.0657 56.9643 12.0657C57.4352 11.9632 57.835 11.7226 58.1549 11.3528C58.4748 10.9786 58.7103 10.5508 58.8658 10.0652C59.0168 9.5795 59.0923 9.10275 59.0923 8.63937V5.35115C59.0923 4.44667 58.8924 3.9922 58.4881 3.9922C58.3637 3.9922 58.1816 4.02784 57.9461 4.10359C57.7106 4.17488 57.5774 4.21943 57.5374 4.22835C56.751 4.15706 56.3556 3.52436 56.3556 2.32581C56.4489 1.14954 57.102 0.565857 58.3104 0.565857C58.5903 0.565857 58.9724 0.614868 59.4611 0.708436C59.9498 0.802003 60.3319 0.851014 60.6162 0.851014C60.8472 0.851014 61.2071 0.802003 61.7002 0.708436C62.1934 0.610413 62.5621 0.565857 62.802 0.565857C63.0819 0.565857 63.2863 0.628235 63.4151 0.757447C63.544 0.886659 63.6106 1.12726 63.6106 1.48816V10.8271C63.6106 11.7137 63.775 12.186 64.1038 12.2439C64.548 12.088 64.8857 12.0122 65.1078 12.0122C65.9342 12.0122 66.3429 12.5915 66.3429 13.7499C66.3163 14.3559 66.1563 14.8237 65.8631 15.1445C65.5699 15.4653 65.1922 15.6257 64.7346 15.6257C64.4592 15.6257 64.0949 15.5767 63.6417 15.4831C63.1886 15.3896 62.8243 15.3406 62.5488 15.3406C62.34 15.3406 62.0246 15.3896 61.6069 15.4831C61.1893 15.5767 60.8961 15.6257 60.7273 15.6257C60.4429 15.6257 60.2119 15.5322 60.0387 15.3495C59.8654 15.1668 59.7765 14.9574 59.7765 14.7302V13.5138H59.781Z" fill="#2E3131"/>
<path d="M73.1054 3.94319H73.1676C73.3187 2.97187 73.7763 2.1164 74.5404 1.36786C75.3046 0.619325 76.3842 0.245056 77.7703 0.245056C78.4545 0.262878 79.0898 0.436646 79.6762 0.761904C80.2627 1.08716 80.7336 1.53272 81.0801 2.08967C81.4267 2.64662 81.5999 3.26594 81.5999 3.93428C81.5999 4.71846 81.36 5.37789 80.8758 5.91256C80.3915 6.44723 79.8095 6.72793 79.1209 6.75912C78.5567 6.69674 78.0946 6.51852 77.7214 6.22445C77.3482 5.93038 77.1394 5.51601 77.0817 4.98134C77.1439 4.54024 77.2771 4.12587 77.4815 3.73823C75.2735 3.73823 74.1717 5.61403 74.1717 9.36563V10.5508C74.1717 11.0231 74.1983 11.3662 74.2472 11.5801C74.3005 11.7939 74.4382 12.0167 74.6604 12.2529C75.0336 12.0969 75.3401 12.0212 75.58 12.0212C75.9621 12.0212 76.2775 12.1326 76.513 12.3598C76.7529 12.587 76.8729 12.9256 76.8729 13.3757C76.8729 14.8816 76.3264 15.6302 75.2335 15.6302C74.8159 15.6302 74.2116 15.5812 73.4253 15.4876C72.6389 15.3896 72.0169 15.345 71.5682 15.345C71.2572 15.345 70.7063 15.394 69.9066 15.4876C69.1069 15.5812 68.5605 15.6302 68.2539 15.6302C67.352 15.6302 66.9033 14.8772 66.9033 13.3757C66.9877 12.4756 67.4365 12.0212 68.2539 12.0212C68.365 12.0212 68.5294 12.0568 68.7426 12.1326C68.9559 12.2083 69.0714 12.2484 69.0892 12.2529C69.4357 11.9053 69.609 11.3573 69.609 10.6043V5.47145C69.609 4.64717 69.5334 4.17488 69.3779 4.05458C69.3424 4.01893 69.2269 3.99666 69.0314 3.99666C68.947 3.99666 68.6138 4.05458 68.0273 4.17488C67.2765 4.09914 66.9033 3.51991 66.9033 2.4372C66.9033 1.84461 67.041 1.38123 67.3165 1.05152C67.592 0.721803 67.9429 0.556947 68.3739 0.556947C68.5694 0.556947 68.7515 0.570314 68.9114 0.597047C69.0714 0.623781 69.2669 0.663881 69.4979 0.717348C69.7289 0.770815 69.9288 0.815371 70.0977 0.84656C70.3154 0.84656 70.6708 0.797548 71.1639 0.703981C71.6571 0.605958 72.0169 0.561403 72.2346 0.561403C72.8077 0.561403 73.0921 0.900027 73.0921 1.57282V3.94319H73.1054Z" fill="#2E3131"/>
<path d="M85.5407 14.3292C85.5407 15.2693 84.9943 15.7371 83.8969 15.7371C82.9239 15.7371 82.4352 15.3049 82.4352 14.4405C82.4352 14.249 82.453 13.9905 82.493 13.6653C82.5285 13.34 82.5508 13.0727 82.5508 12.8544C82.5508 12.2306 82.493 11.6603 82.373 11.1479C82.6396 10.1855 83.2261 9.70426 84.1279 9.70426C84.8121 9.70426 85.2697 9.80674 85.5052 10.0117C85.7406 10.2167 86.0339 10.582 86.3893 11.1122C86.7447 11.6424 87.1534 12.0212 87.6155 12.2484C88.0953 12.4311 88.7262 12.5558 89.5125 12.6227C90.8765 12.538 91.5562 12.0835 91.5562 11.2637C91.5562 10.7157 91.1608 10.3414 90.3744 10.1454C90.0634 10.0563 89.3881 9.91813 88.3441 9.73545C87.3001 9.55277 86.447 9.3389 85.7851 9.10276C85.1231 8.86661 84.59 8.50125 84.1812 8.01114C83.7903 7.51211 83.5459 7.03537 83.4438 6.57199C83.3416 6.11306 83.2883 5.60067 83.2883 5.03481C83.2883 4.15706 83.5015 3.34614 83.928 2.60206C84.3545 1.85798 84.9587 1.26093 85.7451 0.819827C86.5315 0.378724 87.4289 0.142578 88.4463 0.124756C90.2056 0.124756 91.5384 0.579225 92.4448 1.48371C92.4714 0.993595 92.6269 0.668337 92.9068 0.499025C93.1867 0.329713 93.6354 0.245057 94.2574 0.245057C94.7283 0.245057 95.0482 0.334168 95.217 0.507936C95.3814 0.68616 95.4658 0.949039 95.4658 1.30994C95.4658 1.48816 95.4436 1.74213 95.3947 2.07185C95.3459 2.40156 95.3236 2.61097 95.3236 2.70008C95.3236 2.93177 95.3459 3.26149 95.3947 3.69368C95.4392 4.12587 95.4658 4.46004 95.4658 4.69619C95.4658 5.41799 95.026 5.83236 94.1463 5.93484C93.6354 5.93484 93.2133 5.85909 92.8801 5.7076C92.5469 5.55611 92.2981 5.39126 92.1338 5.20858C91.9694 5.0259 91.7739 4.77639 91.5562 4.46004C91.0808 3.78279 90.3567 3.44417 89.3704 3.44417C88.9172 3.44417 88.5396 3.54664 88.2375 3.74715C87.9354 3.94765 87.7843 4.22389 87.7843 4.57143C87.7843 4.82985 87.8421 5.03927 87.9576 5.19521C88.0731 5.35116 88.2241 5.47146 88.4196 5.55611C88.6107 5.63631 88.8595 5.71206 89.166 5.77889C89.4726 5.84573 89.7969 5.91702 90.1479 5.98831C90.7832 6.11752 91.3963 6.23782 91.9783 6.35812C92.5603 6.47842 93.1511 6.64773 93.7509 6.86606C94.3462 7.08438 94.835 7.36954 95.217 7.72153C95.9679 8.43442 96.341 9.45475 96.341 10.7781C96.341 11.7806 96.0656 12.6717 95.5102 13.4559C94.9549 14.24 94.2263 14.8549 93.3244 15.296C92.4225 15.7371 91.4807 15.9733 90.4944 16C88.4596 16 86.8113 15.4431 85.5407 14.3292Z" fill="#2E3131"/>
<path d="M110.846 8.84879H103.298C103.093 8.84879 102.942 8.8978 102.854 9.00028C102.765 9.10276 102.703 9.28098 102.663 9.54386C102.685 9.60624 102.707 9.71317 102.725 9.86466C102.743 10.0162 102.76 10.132 102.782 10.2077C102.951 10.8048 103.289 11.3083 103.8 11.7182C104.311 12.1281 104.986 12.3375 105.83 12.3375C106.243 12.3375 106.599 12.2439 106.901 12.0568C107.203 11.8697 107.558 11.589 107.963 11.2102C108.367 10.8315 108.714 10.5508 109.007 10.3681C109.296 10.1855 109.638 10.0919 110.033 10.0919C110.642 10.0919 111.144 10.2478 111.539 10.5553C111.935 10.8627 112.134 11.3172 112.134 11.9053C112.134 12.5157 111.886 13.1351 111.388 13.7633C110.891 14.3915 110.144 14.9128 109.145 15.3361C108.145 15.7594 106.945 15.9777 105.541 16C104.102 16 102.809 15.6792 101.654 15.042C100.503 14.4049 99.597 13.496 98.9351 12.3197C98.2731 11.1434 97.9443 9.78446 97.9443 8.23392C97.9443 6.95516 98.1354 5.81899 98.513 4.82094C98.8906 3.82289 99.4149 2.98524 100.081 2.30354C100.748 1.62183 101.507 1.09607 102.356 0.730715C103.209 0.365357 104.115 0.164856 105.075 0.1203C106.683 0.1203 108.02 0.392091 109.087 0.931216C110.153 1.47034 110.944 2.16096 111.45 2.99415C111.957 3.82735 112.254 4.70955 112.33 5.63631C112.405 6.40713 112.441 6.93734 112.441 7.22696C112.441 7.77945 112.326 8.18491 112.094 8.44779C111.863 8.71066 111.455 8.84879 110.846 8.84879ZM103.587 5.64077H107.074C107.478 5.64077 107.678 5.467 107.678 5.11946C107.678 4.62044 107.438 4.20607 106.959 3.88081C106.479 3.5511 105.932 3.38624 105.319 3.38624C104.764 3.41298 104.244 3.60902 103.769 3.97438C103.293 4.33974 102.965 4.78084 102.787 5.29769C102.831 5.52492 103.098 5.64077 103.587 5.64077Z" fill="#2E3131"/>
<path d="M117.204 14.3292C117.204 15.2693 116.657 15.7371 115.56 15.7371C114.587 15.7371 114.098 15.3049 114.098 14.4405C114.098 14.249 114.116 13.9905 114.156 13.6653C114.192 13.34 114.214 13.0727 114.214 12.8544C114.214 12.2306 114.156 11.6603 114.036 11.1479C114.303 10.1855 114.889 9.70426 115.791 9.70426C116.475 9.70426 116.933 9.80674 117.168 10.0117C117.404 10.2167 117.697 10.582 118.052 11.1122C118.408 11.6424 118.817 12.0212 119.279 12.2484C119.758 12.4311 120.389 12.5558 121.176 12.6227C122.54 12.538 123.219 12.0835 123.219 11.2637C123.219 10.7157 122.824 10.3414 122.038 10.1454C121.727 10.0563 121.051 9.91813 120.007 9.73545C118.963 9.55277 118.11 9.3389 117.448 9.10276C116.786 8.86661 116.253 8.50125 115.844 8.01114C115.453 7.51211 115.209 7.03537 115.107 6.57199C115.005 6.11306 114.951 5.60067 114.951 5.03481C114.951 4.15706 115.165 3.34614 115.591 2.60206C116.018 1.85798 116.622 1.26093 117.408 0.819827C118.195 0.378724 119.092 0.142578 120.109 0.124756C121.869 0.124756 123.202 0.579225 124.108 1.48371C124.135 0.993595 124.29 0.668337 124.57 0.499025C124.85 0.329713 125.299 0.245057 125.921 0.245057C126.391 0.245057 126.711 0.334168 126.88 0.507936C127.045 0.68616 127.129 0.949039 127.129 1.30994C127.129 1.48816 127.107 1.74213 127.058 2.07185C127.009 2.40156 126.987 2.61097 126.987 2.70008C126.987 2.93177 127.009 3.26149 127.058 3.69368C127.107 4.12587 127.129 4.46004 127.129 4.69619C127.129 5.41799 126.689 5.83236 125.809 5.93484C125.299 5.93484 124.876 5.85909 124.543 5.7076C124.21 5.55611 123.961 5.39126 123.797 5.20858C123.632 5.0259 123.437 4.77639 123.219 4.46004C122.744 3.78279 122.02 3.44417 121.033 3.44417C120.58 3.44417 120.203 3.54664 119.901 3.74715C119.598 3.94765 119.447 4.22389 119.447 4.57143C119.447 4.82985 119.505 5.03927 119.621 5.19521C119.736 5.35116 119.887 5.47146 120.083 5.55611C120.274 5.63631 120.523 5.71206 120.829 5.77889C121.136 5.84573 121.46 5.91702 121.811 5.98831C122.446 6.11752 123.059 6.23782 123.641 6.35812C124.223 6.47842 124.814 6.64773 125.414 6.86606C126.009 7.08438 126.498 7.36954 126.88 7.72153C127.631 8.43442 128.004 9.45475 128.004 10.7781C128.004 11.7806 127.729 12.6717 127.169 13.4559C126.614 14.24 125.885 14.8549 124.983 15.296C124.081 15.7371 123.139 15.9733 122.153 16C120.123 16 118.474 15.4431 117.204 14.3292Z" fill="#2E3131"/>
<path d="M12.969 7.03549L5.80282 9.4014C5.60734 9.46823 5.48294 9.5618 5.42963 9.6821C5.37632 9.80686 5.37187 9.99845 5.42074 10.2613C5.46073 10.3103 5.51404 10.4084 5.58068 10.5465C5.64732 10.6846 5.70064 10.7871 5.74062 10.8539C6.08715 11.3663 6.56697 11.7406 7.18007 11.9723C7.79317 12.204 8.49957 12.1861 9.30371 11.9233C9.69467 11.794 10.0057 11.5935 10.2322 11.3218C10.4588 11.05 10.7076 10.6712 10.9742 10.1856C11.2407 9.69992 11.4851 9.32565 11.7028 9.05832C11.9205 8.79544 12.2181 8.59939 12.5913 8.47464C13.1689 8.28305 13.6931 8.27414 14.1685 8.44345C14.6394 8.61276 14.9682 8.97812 15.1548 9.53952C15.3458 10.1187 15.3014 10.7871 15.026 11.5356C14.7505 12.2886 14.2041 13.0193 13.3866 13.7367C12.5691 14.454 11.4984 15.0377 10.1745 15.4966C8.81056 15.9467 7.47774 16.0491 6.1849 15.8041C4.89206 15.559 3.74583 14.9798 2.75509 14.0753C1.76436 13.1708 1.02242 11.9767 0.538162 10.5019C0.138314 9.29001 -0.0349532 8.14938 0.0139171 7.0845C0.0627873 6.01961 0.298253 5.05721 0.715871 4.20173C1.12905 3.34181 1.68883 2.60663 2.3819 1.99176C3.07941 1.37689 3.87467 0.900147 4.77654 0.561522C6.30041 0.0580413 7.65545 -0.106815 8.84166 0.071408C10.0234 0.249631 10.9875 0.655089 11.7339 1.29224C12.4803 1.92939 13.0312 2.67347 13.3955 3.52449C13.7065 4.23292 13.9064 4.72749 13.9997 4.99928C14.173 5.52059 14.1863 5.94387 14.0486 6.26912C13.9064 6.58993 13.551 6.84835 12.969 7.03549ZM5.07421 6.26912L8.38406 5.17751C8.76613 5.05275 8.90386 4.82106 8.79723 4.49135C8.64174 4.01905 8.28631 3.70271 7.72653 3.53785C7.16674 3.37745 6.59807 3.39082 6.01607 3.58241C5.49627 3.78291 5.06532 4.13045 4.72767 4.62947C4.39002 5.12404 4.21676 5.64534 4.20787 6.19338C4.32338 6.39834 4.61216 6.42061 5.07421 6.26912Z" fill="#0067DA"/>
</svg>
