<svg width="16" height="16" fill="none" xmlns="http://www.w3.org/2000/svg"><path d="M15.883 14.635L12.1 10.859c-.094-.062-.188-.125-.282-.125h-.406a6.527 6.527 0 0 0 1.594-4.244c0-3.557-2.939-6.49-6.503-6.49C2.908 0 0 2.933 0 6.49a6.492 6.492 0 0 0 6.503 6.491 6.592 6.592 0 0 0 4.252-1.56v.405c0 .094.031.188.094.281l3.783 3.776c.157.156.407.156.532 0l.719-.718c.156-.124.156-.374 0-.53zm-9.38-3.152A4.972 4.972 0 0 1 1.501 6.49a4.992 4.992 0 0 1 5.002-4.992c2.752 0 5.003 2.247 5.003 4.992a4.992 4.992 0 0 1-5.003 4.993z" fill="#586268"/></svg>