<svg width="154" height="107" fill="none" xmlns="http://www.w3.org/2000/svg"><path fill-rule="evenodd" clip-rule="evenodd" d="M153.179 78.279c0 9.386-3.285 16.52-9.855 21.4-6.571 4.881-14.173 7.321-22.808 7.321-12.765 0-22.902-4.505-30.41-13.516-7.51-9.01-11.264-19.71-11.264-32.1 0-9.386 1.877-17.833 5.632-25.342 3.754-7.509 8.729-13.985 14.923-19.429 6.195-5.444 13.516-9.574 21.964-12.39C129.808 1.409 138.537 0 147.547 0v5.632c-13.14 2.628-23.089 6.851-29.847 12.67-6.758 5.82-10.137 14.736-10.137 26.75 0 7.51 1.126 12.953 3.379 16.332 3.379-2.628 6.664-4.411 9.855-5.35 3.192-.938 6.289-1.408 9.292-1.408 7.509 0 13.235 2.535 17.177 7.603s5.913 10.418 5.913 16.05zm-79.969 0c0 9.386-3.284 16.52-9.855 21.4C56.785 104.56 49.183 107 40.547 107c-12.765 0-22.714-4.505-29.847-13.516C3.567 84.474 0 73.774 0 61.384c0-9.386 1.69-17.833 5.068-25.342 3.38-7.509 8.166-13.985 14.36-19.429 6.196-5.444 13.517-9.574 21.964-12.39C49.84 1.409 58.568 0 67.58 0v5.632c-13.14 2.628-23.09 6.851-29.847 12.67-6.758 5.82-10.137 14.736-10.137 26.75 0 6.759 1.126 12.202 3.379 16.332 3.379-2.628 6.664-4.411 9.855-5.35 3.191-.938 6.288-1.408 9.292-1.408 7.509 0 13.234 2.535 17.176 7.603 3.943 5.068 5.913 10.418 5.913 16.05z" fill="#00499B"/></svg>